{
    "asset" : {
        "generator" : "Khronos glTF Blender I/O v1.3.48",
        "version" : "2.0"
    },
    "scene" : 0,
    "scenes" : [
        {
            "name" : "Scene",
            "nodes" : [
                0,
                1,
                2
            ]
        }
    ],
    "nodes" : [
        {
            "mesh" : 0,
            "name" : "table"
        },
        {
            "mesh" : 1,
            "name" : "wood"
        },
        {
            "mesh" : 2,
            "name" : "hole"
        }
    ],
    "materials" : [
        {
            "doubleSided" : true,
            "emissiveFactor" : [
                0,
                0,
                0
            ],
            "name" : "Default OBJ",
            "pbrMetallicRoughness" : {
                "baseColorTexture" : {
                    "index" : 0,
                    "texCoord" : 0
                },
                "metallicFactor" : 0,
                "roughnessFactor" : 0.5
            }
        },
        {
            "doubleSided" : true,
            "emissiveFactor" : [
                0,
                0,
                0
            ],
            "name" : "Default OBJ.001",
            "pbrMetallicRoughness" : {
                "baseColorFactor" : [
                    0.17956887185573578,
                    0.12999999523162842,
                    0.05000000074505806,
                    1
                ],
                "metallicFactor" : 0,
                "roughnessFactor" : 0.05000000074505806
            }
        },
        {
            "doubleSided" : true,
            "emissiveFactor" : [
                0,
                0,
                0
            ],
            "name" : "Default OBJ.003",
            "pbrMetallicRoughness" : {
                "baseColorFactor" : [
                    0.009999999776482582,
                    0.009999999776482582,
                    0.009999999776482582,
                    1
                ],
                "metallicFactor" : 0,
                "roughnessFactor" : 0.5
            }
        }
    ],
    "meshes" : [
        {
            "name" : "table",
            "primitives" : [
                {
                    "attributes" : {
                        "POSITION" : 0,
                        "NORMAL" : 1,
                        "TEXCOORD_0" : 2
                    },
                    "indices" : 3,
                    "material" : 0
                }
            ]
        },
        {
            "name" : "wood",
            "primitives" : [
                {
                    "attributes" : {
                        "POSITION" : 4,
                        "NORMAL" : 5,
                        "TEXCOORD_0" : 6
                    },
                    "indices" : 7,
                    "material" : 1
                }
            ]
        },
        {
            "name" : "hole",
            "primitives" : [
                {
                    "attributes" : {
                        "POSITION" : 8,
                        "NORMAL" : 9,
                        "TEXCOORD_0" : 10
                    },
                    "indices" : 11,
                    "material" : 2
                }
            ]
        }
    ],
    "textures" : [
        {
            "source" : 0
        }
    ],
    "images" : [
        {
            "bufferView" : 4,
            "mimeType" : "image/png",
            "name" : "table"
        }
    ],
    "accessors" : [
        {
            "bufferView" : 0,
            "componentType" : 5126,
            "count" : 855,
            "max" : [
                1671.7685546875,
                2336.67041015625,
                178.8868408203125
            ],
            "min" : [
                -1642.174560546875,
                -1532.38330078125,
                -112.19841766357422
            ],
            "type" : "VEC3"
        },
        {
            "bufferView" : 1,
            "componentType" : 5126,
            "count" : 855,
            "type" : "VEC3"
        },
        {
            "bufferView" : 2,
            "componentType" : 5126,
            "count" : 855,
            "type" : "VEC2"
        },
        {
            "bufferView" : 3,
            "componentType" : 5123,
            "count" : 3282,
            "type" : "SCALAR"
        },
        {
            "bufferView" : 5,
            "componentType" : 5126,
            "count" : 206,
            "max" : [
                1296.744873046875,
                -1226.251953125,
                171.96180725097656
            ],
            "min" : [
                -1671.143798828125,
                -1813.2001953125,
                -124.62242126464844
            ],
            "type" : "VEC3"
        },
        {
            "bufferView" : 6,
            "componentType" : 5126,
            "count" : 206,
            "type" : "VEC3"
        },
        {
            "bufferView" : 7,
            "componentType" : 5126,
            "count" : 206,
            "type" : "VEC2"
        },
        {
            "bufferView" : 8,
            "componentType" : 5123,
            "count" : 678,
            "type" : "SCALAR"
        },
        {
            "bufferView" : 9,
            "componentType" : 5126,
            "count" : 1116,
            "max" : [
                541.9295043945312,
                -1416.644287109375,
                322.3810119628906
            ],
            "min" : [
                105.13130187988281,
                -1607.24169921875,
                -130.79220581054688
            ],
            "type" : "VEC3"
        },
        {
            "bufferView" : 10,
            "componentType" : 5126,
            "count" : 1116,
            "type" : "VEC3"
        },
        {
            "bufferView" : 11,
            "componentType" : 5126,
            "count" : 1116,
            "type" : "VEC2"
        },
        {
            "bufferView" : 12,
            "componentType" : 5123,
            "count" : 5217,
            "type" : "SCALAR"
        }
    ],
    "bufferViews" : [
        {
            "buffer" : 0,
            "byteLength" : 10260,
            "byteOffset" : 0
        },
        {
            "buffer" : 0,
            "byteLength" : 10260,
            "byteOffset" : 10260
        },
        {
            "buffer" : 0,
            "byteLength" : 6840,
            "byteOffset" : 20520
        },
        {
            "buffer" : 0,
            "byteLength" : 6564,
            "byteOffset" : 27360
        },
        {
            "buffer" : 0,
            "byteLength" : 456156,
            "byteOffset" : 33924
        },
        {
            "buffer" : 0,
            "byteLength" : 2472,
            "byteOffset" : 490080
        },
        {
            "buffer" : 0,
            "byteLength" : 2472,
            "byteOffset" : 492552
        },
        {
            "buffer" : 0,
            "byteLength" : 1648,
            "byteOffset" : 495024
        },
        {
            "buffer" : 0,
            "byteLength" : 1356,
            "byteOffset" : 496672
        },
        {
            "buffer" : 0,
            "byteLength" : 13392,
            "byteOffset" : 498028
        },
        {
            "buffer" : 0,
            "byteLength" : 13392,
            "byteOffset" : 511420
        },
        {
            "buffer" : 0,
            "byteLength" : 8928,
            "byteOffset" : 524812
        },
        {
            "buffer" : 0,
            "byteLength" : 10434,
            "byteOffset" : 533740
        }
    ],
    "buffers" : [
        {
            "byteLength" : 544176,
            "uri" : "data:application/octet-stream;base64,"
        }
    ]
}
