# Created by Metasequoia

v 1262.703491 124.622398 -1807.253662
v -1665.198486 124.622398 -1499.518799
v -1637.101440 124.622398 -1232.196777
v 1290.799927 124.622398 -1539.931396
v 1291.424194 118.644402 -1533.987061
v -1636.476807 118.644402 -1226.251953
v -1636.476807 -165.983704 -1226.251953
v 1291.424194 -165.983704 -1533.987061
v 1290.799927 -171.961807 -1539.931396
v -1637.101440 -171.961807 -1232.196777
v -1665.198486 -171.961807 -1499.518799
v 1262.703491 -171.961807 -1807.253662
v 110.862549 124.622398 -1415.915039
v 524.123169 124.622398 -1459.350464
v 113.425385 124.622398 -1427.380371
v 117.241058 124.622398 -1440.514038
v 118.139984 124.622421 -1443.010864
v 121.873856 124.622398 -1453.381958
v 127.305389 124.622398 -1465.933594
v 133.514481 124.622398 -1478.119751
v 140.476395 124.622398 -1489.891479
v 148.163727 124.622398 -1501.202759
v 156.546188 124.622398 -1512.009277
v 165.590668 124.622398 -1522.268188
v 175.261429 124.622398 -1531.939575
v 185.520386 124.622398 -1540.983765
v 196.326920 124.622398 -1549.365967
v 207.638580 124.622398 -1557.053467
v 219.410492 124.622398 -1564.015747
v 231.596436 124.622398 -1570.224609
v 244.148148 124.622398 -1575.656128
v 257.015991 124.622398 -1580.288208
v 270.149597 124.622398 -1584.104492
v 283.496735 124.622398 -1587.088257
v 297.004883 124.622398 -1589.227417
v 310.620667 124.622398 -1590.514526
v 324.290405 124.622398 -1590.943848
v 337.960205 124.622398 -1590.514526
v 351.576111 124.622398 -1589.227173
v 365.084167 124.622398 -1587.087769
v 378.431396 124.622398 -1584.104492
v 391.565002 124.622398 -1580.288208
v 404.432983 124.622398 -1575.655884
v 416.984558 124.622398 -1570.224121
v 429.170288 124.622398 -1564.015259
v 440.942261 124.622398 -1557.053223
v 452.254089 124.622398 -1549.365479
v 463.060547 124.622398 -1540.983521
v 473.319519 124.622398 -1531.939087
v 482.990051 124.622398 -1522.267944
v 492.034668 124.622398 -1512.009033
v 500.416931 124.622398 -1501.202515
v 508.104187 124.622398 -1489.891235
v 515.066162 124.622398 -1478.119507
v 521.274902 124.622398 -1465.933350
v 109.769897 118.644402 -1409.790039
v 526.611267 118.644402 -1453.601929
v 109.769897 -165.983704 -1409.790039
v 526.611328 -165.983704 -1453.601929
v 110.862549 -171.961807 -1415.915039
v 165.590668 -171.961807 -1522.268188
v 482.990051 -171.961807 -1522.267944
v 524.123535 -171.961807 -1459.350464
v 521.274902 -171.961807 -1465.933350
v 113.425385 -171.961807 -1427.380371
v 117.241058 -171.961807 -1440.514038
v 121.873856 -171.961807 -1453.381958
v 127.305389 -171.961807 -1465.933594
v 133.514481 -171.961807 -1478.119751
v 140.476395 -171.961807 -1489.891479
v 148.163727 -171.961807 -1501.202759
v 156.546188 -171.961807 -1512.009277
v 492.034668 -171.961807 -1512.009033
v 500.416931 -171.961807 -1501.202515
v 508.104187 -171.961807 -1489.891235
v 515.066162 -171.961807 -1478.119507
v 473.319519 -171.961807 -1531.939087
v 175.261429 -171.961807 -1531.939575
v 185.520386 -171.961807 -1540.983765
v 196.326920 -171.961807 -1549.365967
v 207.638580 -171.961807 -1557.053467
v 219.410492 -171.961807 -1564.015747
v 231.596436 -171.961807 -1570.224609
v 244.148148 -171.961807 -1575.656128
v 257.015991 -171.961807 -1580.288208
v 270.149597 -171.961807 -1584.104492
v 283.496735 -171.961807 -1587.088257
v 297.004883 -171.961807 -1589.227417
v 310.620667 -171.961807 -1590.514526
v 324.290405 -171.961807 -1590.943848
v 337.960205 -171.961807 -1590.514526
v 351.576111 -171.961807 -1589.227173
v 365.084167 -171.961807 -1587.087769
v 378.431396 -171.961807 -1584.104492
v 391.565002 -171.961807 -1580.288208
v 404.432983 -171.961807 -1575.655884
v 416.984558 -171.961807 -1570.224121
v 429.170288 -171.961807 -1564.015259
v 440.942261 -171.961807 -1557.053223
v 452.254089 -171.961807 -1549.365479
v 463.060547 -171.961807 -1540.983521
v 110.441986 122.794846 -1414.033447
v 110.441986 -170.134232 -1414.033447
v 1262.078247 -165.983704 -1813.200195
v -1665.822388 -165.983704 -1505.464600
v -1665.822388 118.644402 -1505.464600
v 1262.078247 118.644402 -1813.200195
v -1671.143799 118.644402 -1498.894043
v -1671.143799 -165.983704 -1498.894043
v -1643.046997 -165.983704 -1231.572266
v -1643.046997 118.644402 -1231.572266
v 1268.648682 -165.983704 -1807.878418
v 1268.648682 118.644402 -1807.878418
v 1296.744873 118.644402 -1540.556152
v 1296.744873 -165.983704 -1540.556152
# 115 vertices

vt 0.00000 0.00000
# 1 texture vertices

vn 0.06434 0.99476 -0.07944
vn -0.32189 0.91018 -0.26067
vn -0.07518 0.99284 0.09285
vn 0.28231 0.89284 0.35090
vn 0.46966 0.24405 0.84845
vn -0.14941 0.37843 0.91349
vn -0.29070 -0.38084 0.87776
vn 0.37879 -0.45332 0.80686
vn 0.19301 -0.97633 0.09759
vn -0.20318 -0.89285 0.40191
vn -0.09689 -0.99409 -0.04899
vn 0.05133 -0.99351 -0.10151
vn 0.04000 0.92387 0.38062
vn 0.04000 0.92387 0.38062
vn 0.00000 1.00000 0.00000
vn 0.00000 1.00000 0.00000
vn 0.94088 -0.00000 0.33874
vn -0.00000 1.00000 -0.00000
vn 0.09657 0.38265 0.91883
vn 0.09020 0.50540 0.85816
vn 0.10114 -0.25270 0.96224
vn 0.10114 -0.25270 0.96224
vn 0.04000 -0.92387 0.38062
vn 0.00000 -1.00000 0.00000
vn 0.05284 -0.86283 0.50273
vn 0.07392 0.70707 0.70327
vn 0.07392 -0.70706 0.70328
vn 0.36294 -0.29243 -0.88474
vn -0.33606 -0.37846 -0.86246
vn -0.46682 0.38088 -0.79813
vn 0.19618 0.29292 -0.93579
vn -0.86794 0.45338 -0.20281
vn -0.92752 -0.24408 -0.28307
vn -0.80681 -0.45337 0.37882
vn -0.84841 0.24408 0.46971
vn 0.80684 -0.45336 -0.37878
vn 0.84844 0.24408 -0.46965
vn 0.86794 0.45336 0.20283
vn 0.92752 -0.24406 0.28310
vn 0.95424 0.00000 0.29904
vn 0.94608 -0.00000 0.32392
vn 0.00000 1.00000 0.00000
vn 0.98229 0.00000 0.18738
vn 0.97592 0.00000 0.21814
vn -0.91775 -0.00000 0.39716
vn -0.91775 -0.00000 0.39716
vn -0.91774 -0.00000 0.39719
vn -0.91773 -0.00000 0.39721
vn 0.98769 0.00000 0.15643
vn 0.98769 0.00000 0.15643
vn -0.68456 0.00000 0.72896
vn -0.73610 0.00000 0.67687
vn -0.72177 0.00000 0.69213
vn -0.90484 -0.00000 0.42575
vn -0.90484 0.00000 0.42574
vn 0.97113 0.00000 0.23853
vn 0.96593 0.00000 0.25882
vn 0.93358 -0.00000 0.35837
vn 0.92587 0.00000 0.37784
vn 0.90924 0.00000 0.41627
vn 0.90032 0.00000 0.43523
vn 0.88130 0.00000 0.47255
vn 0.87121 0.00000 0.49091
vn 0.84989 0.00000 0.52696
vn 0.83866 0.00000 0.54465
vn 0.81512 0.00000 0.57929
vn 0.80281 0.00000 0.59623
vn 0.77715 0.00000 0.62932
vn 0.76379 0.00000 0.64546
vn 0.73611 0.00000 0.67687
vn 0.72177 0.00000 0.69213
vn 0.69216 0.00000 0.72175
vn 0.67687 0.00000 0.73610
vn 0.64545 0.00000 0.76380
vn 0.62931 0.00000 0.77716
vn 0.59622 0.00000 0.80282
vn 0.57928 0.00000 0.81513
vn 0.54465 0.00000 0.83866
vn 0.52697 0.00000 0.84988
vn 0.49092 0.00000 0.87121
vn 0.47255 0.00000 0.88130
vn 0.43522 0.00000 0.90032
vn 0.41627 0.00000 0.90924
vn 0.37783 0.00000 0.92588
vn 0.35834 0.00000 0.93359
vn 0.31895 0.00000 0.94777
vn 0.29905 0.00000 0.95424
vn 0.25886 0.00000 0.96592
vn 0.23856 0.00000 0.97113
vn 0.19767 0.00000 0.98027
vn 0.17707 0.00000 0.98420
vn 0.13570 0.00000 0.99075
vn 0.11493 0.00000 0.99337
vn 0.07324 0.00000 0.99731
vn 0.05232 0.00000 0.99863
vn 0.01047 0.00000 0.99995
vn -0.01047 0.00000 0.99995
vn -0.05233 0.00000 0.99863
vn -0.07325 0.00000 0.99731
vn -0.11495 0.00000 0.99337
vn -0.13572 0.00000 0.99075
vn -0.17707 0.00000 0.98420
vn -0.19765 0.00000 0.98027
vn -0.23854 0.00000 0.97113
vn -0.25885 0.00000 0.96592
vn -0.29906 0.00000 0.95424
vn -0.31896 0.00000 0.94777
vn -0.35835 0.00000 0.93359
vn -0.37784 0.00000 0.92587
vn -0.41629 0.00000 0.90923
vn -0.43524 0.00000 0.90032
vn -0.47255 0.00000 0.88131
vn -0.49091 0.00000 0.87121
vn -0.52696 0.00000 0.84989
vn -0.54465 0.00000 0.83866
vn -0.57928 0.00000 0.81513
vn -0.59622 0.00000 0.80282
vn -0.63741 0.00000 0.77052
vn -0.76379 0.00000 0.64546
vn -0.77715 0.00000 0.62932
vn -0.80282 0.00000 0.59623
vn -0.81513 0.00000 0.57928
vn -0.83866 0.00000 0.54465
vn -0.84989 0.00000 0.52696
vn -0.87631 0.00000 0.48175
vn -0.87631 0.00000 0.48175
# 126 normal vertices

f 3/1/3 13/1/13 15/1/15
f 3/1/3 15/1/15 16/1/16
f 3/1/3 18/1/18 19/1/15
f 3/1/3 19/1/15 20/1/15
f 3/1/3 20/1/15 21/1/15
f 3/1/3 21/1/15 22/1/15
f 3/1/3 22/1/15 23/1/15
f 3/1/3 23/1/15 24/1/15
f 3/1/3 24/1/15 25/1/15
f 3/1/3 25/1/15 26/1/15
f 3/1/3 26/1/15 27/1/15
f 3/1/3 27/1/15 28/1/15
f 3/1/3 28/1/15 29/1/15
f 3/1/3 29/1/15 30/1/15
f 3/1/3 30/1/15 31/1/15
f 3/1/3 31/1/15 32/1/15
f 3/1/3 32/1/15 33/1/15
f 1/1/1 33/1/15 34/1/15
f 1/1/1 49/1/15 50/1/15
f 1/1/1 50/1/15 51/1/15
f 1/1/1 51/1/15 52/1/15
f 1/1/1 52/1/15 53/1/15
f 1/1/1 53/1/15 54/1/15
f 1/1/1 54/1/15 55/1/15
f 65/1/24 11/1/11 66/1/24
f 66/1/24 11/1/11 67/1/24
f 67/1/24 11/1/11 68/1/24
f 68/1/24 11/1/11 69/1/24
f 69/1/24 11/1/11 70/1/24
f 70/1/24 11/1/11 71/1/24
f 71/1/24 11/1/11 72/1/24
f 11/1/11 61/1/24 72/1/24
f 62/1/24 9/1/9 73/1/24
f 73/1/24 9/1/9 74/1/24
f 74/1/24 9/1/9 75/1/24
f 75/1/24 9/1/9 76/1/24
f 64/1/24 76/1/24 9/1/9
f 61/1/24 11/1/11 78/1/24
f 78/1/24 11/1/11 79/1/24
f 79/1/24 11/1/11 80/1/24
f 80/1/24 11/1/11 81/1/24
f 81/1/24 11/1/11 82/1/24
f 82/1/24 11/1/11 83/1/24
f 83/1/24 11/1/11 84/1/24
f 84/1/24 11/1/11 85/1/24
f 85/1/24 11/1/11 86/1/24
f 88/1/24 12/1/12 89/1/24
f 90/1/24 12/1/12 91/1/24
f 91/1/24 12/1/12 92/1/24
f 92/1/24 12/1/12 93/1/24
f 93/1/24 12/1/12 94/1/24
f 94/1/24 12/1/12 95/1/24
f 95/1/24 12/1/12 96/1/24
f 96/1/24 12/1/12 97/1/24
f 97/1/24 12/1/12 98/1/24
f 98/1/24 12/1/12 99/1/24
f 99/1/24 12/1/12 100/1/24
f 100/1/24 12/1/12 101/1/24
f 77/1/24 101/1/24 12/1/12
f 13/1/13 3/1/3 102/1/26
f 58/1/21 7/1/7 103/1/27
f 34/1/15 35/1/15 1/1/1
f 35/1/15 36/1/15 1/1/1
f 36/1/15 37/1/15 1/1/1
f 37/1/15 38/1/15 1/1/1
f 38/1/15 39/1/15 1/1/1
f 39/1/15 40/1/15 1/1/1
f 40/1/15 41/1/15 1/1/1
f 41/1/15 42/1/15 1/1/1
f 42/1/15 43/1/15 1/1/1
f 43/1/15 44/1/15 1/1/1
f 44/1/15 45/1/15 1/1/1
f 45/1/15 46/1/15 1/1/1
f 46/1/15 47/1/15 1/1/1
f 47/1/15 48/1/15 1/1/1
f 48/1/15 49/1/15 1/1/1
f 63/1/25 64/1/24 9/1/9
f 87/1/24 12/1/12 88/1/24
f 89/1/24 12/1/12 90/1/24
f 16/1/40 66/1/41 17/1/17
f 5/1/5 114/1/38 4/1/4
f 6/1/6 3/1/3 111/1/35
f 9/1/9 115/1/39 8/1/8
f 10/1/10 7/1/7 110/1/34
f 104/1/28 112/1/36 12/1/12
f 105/1/29 11/1/11 109/1/33
f 106/1/30 108/1/32 2/1/2
f 107/1/31 1/1/1 113/1/37
f 2/1/2 3/1/3 33/1/15
f 2/1/2 33/1/15 1/1/1
f 4/1/4 1/1/1 55/1/15
f 4/1/4 55/1/15 14/1/14
f 57/1/20 5/1/5 4/1/4
f 57/1/20 4/1/4 14/1/14
f 3/1/3 16/1/16 17/1/42
f 3/1/3 17/1/42 18/1/18
f 6/1/6 7/1/7 58/1/21
f 6/1/6 58/1/21 56/1/19
f 102/1/26 3/1/3 6/1/6
f 102/1/26 6/1/6 56/1/19
f 59/1/22 8/1/8 5/1/5
f 59/1/22 5/1/5 57/1/20
f 63/1/25 9/1/9 8/1/8
f 63/1/25 8/1/8 59/1/22
f 10/1/10 11/1/11 65/1/24
f 10/1/10 65/1/24 60/1/23
f 103/1/27 7/1/7 10/1/10
f 103/1/27 10/1/10 60/1/23
f 77/1/24 12/1/12 9/1/9
f 77/1/24 9/1/9 62/1/24
f 12/1/12 87/1/24 86/1/24
f 12/1/12 86/1/24 11/1/11
f 102/1/43 103/1/43 60/1/44
f 102/1/43 60/1/44 13/1/44
f 14/1/45 63/1/46 59/1/47
f 14/1/45 59/1/47 57/1/48
f 102/1/43 56/1/49 58/1/50
f 102/1/43 58/1/50 103/1/43
f 77/1/51 62/1/52 50/1/53
f 77/1/51 50/1/53 49/1/51
f 64/1/54 63/1/46 14/1/45
f 64/1/54 14/1/45 55/1/55
f 15/1/56 13/1/44 60/1/44
f 15/1/56 60/1/44 65/1/57
f 16/1/40 15/1/56 65/1/57
f 16/1/40 65/1/57 66/1/41
f 18/1/58 17/1/17 66/1/41
f 18/1/58 66/1/41 67/1/59
f 19/1/60 18/1/58 67/1/59
f 19/1/60 67/1/59 68/1/61
f 20/1/62 19/1/60 68/1/61
f 20/1/62 68/1/61 69/1/63
f 21/1/64 20/1/62 69/1/63
f 21/1/64 69/1/63 70/1/65
f 22/1/66 21/1/64 70/1/65
f 22/1/66 70/1/65 71/1/67
f 23/1/68 22/1/66 71/1/67
f 23/1/68 71/1/67 72/1/69
f 24/1/70 23/1/68 72/1/69
f 24/1/70 72/1/69 61/1/71
f 25/1/72 24/1/70 61/1/71
f 25/1/72 61/1/71 78/1/73
f 26/1/74 25/1/72 78/1/73
f 26/1/74 78/1/73 79/1/75
f 27/1/76 26/1/74 79/1/75
f 27/1/76 79/1/75 80/1/77
f 28/1/78 27/1/76 80/1/77
f 28/1/78 80/1/77 81/1/79
f 29/1/80 28/1/78 81/1/79
f 29/1/80 81/1/79 82/1/81
f 30/1/82 29/1/80 82/1/81
f 30/1/82 82/1/81 83/1/83
f 31/1/84 30/1/82 83/1/83
f 31/1/84 83/1/83 84/1/85
f 32/1/86 31/1/84 84/1/85
f 32/1/86 84/1/85 85/1/87
f 33/1/88 32/1/86 85/1/87
f 33/1/88 85/1/87 86/1/89
f 34/1/90 33/1/88 86/1/89
f 34/1/90 86/1/89 87/1/91
f 35/1/92 34/1/90 87/1/91
f 35/1/92 87/1/91 88/1/93
f 36/1/94 35/1/92 88/1/93
f 36/1/94 88/1/93 89/1/95
f 37/1/96 36/1/94 89/1/95
f 37/1/96 89/1/95 90/1/97
f 38/1/98 37/1/96 90/1/97
f 38/1/98 90/1/97 91/1/99
f 39/1/100 38/1/98 91/1/99
f 39/1/100 91/1/99 92/1/101
f 40/1/102 39/1/100 92/1/101
f 40/1/102 92/1/101 93/1/103
f 41/1/104 40/1/102 93/1/103
f 41/1/104 93/1/103 94/1/105
f 42/1/106 41/1/104 94/1/105
f 42/1/106 94/1/105 95/1/107
f 43/1/108 42/1/106 95/1/107
f 43/1/108 95/1/107 96/1/109
f 44/1/110 43/1/108 96/1/109
f 44/1/110 96/1/109 97/1/111
f 45/1/112 44/1/110 97/1/111
f 45/1/112 97/1/111 98/1/113
f 46/1/114 45/1/112 98/1/113
f 46/1/114 98/1/113 99/1/115
f 47/1/116 46/1/114 99/1/115
f 47/1/116 99/1/115 100/1/117
f 48/1/118 47/1/116 100/1/117
f 48/1/118 100/1/117 101/1/118
f 51/1/119 50/1/53 62/1/52
f 51/1/119 62/1/52 73/1/120
f 52/1/121 51/1/119 73/1/120
f 52/1/121 73/1/120 74/1/122
f 53/1/123 52/1/121 74/1/122
f 53/1/123 74/1/122 75/1/124
f 54/1/125 53/1/123 75/1/124
f 54/1/125 75/1/124 76/1/126
f 48/1/118 101/1/118 77/1/51
f 48/1/118 77/1/51 49/1/51
f 54/1/125 76/1/126 64/1/54
f 54/1/125 64/1/54 55/1/55
f 105/1/29 106/1/30 107/1/31
f 105/1/29 107/1/31 104/1/28
f 109/1/33 110/1/34 111/1/35
f 109/1/33 111/1/35 108/1/32
f 113/1/37 114/1/38 115/1/39
f 113/1/37 115/1/39 112/1/36
f 1/1/1 107/1/31 106/1/30
f 1/1/1 106/1/30 2/1/2
f 114/1/38 113/1/37 1/1/1
f 114/1/38 1/1/1 4/1/4
f 108/1/32 111/1/35 3/1/3
f 108/1/32 3/1/3 2/1/2
f 115/1/39 114/1/38 5/1/5
f 115/1/39 5/1/5 8/1/8
f 111/1/35 110/1/34 7/1/7
f 111/1/35 7/1/7 6/1/6
f 112/1/36 115/1/39 9/1/9
f 112/1/36 9/1/9 12/1/12
f 113/1/37 112/1/36 104/1/28
f 113/1/37 104/1/28 107/1/31
f 110/1/34 109/1/33 11/1/11
f 110/1/34 11/1/11 10/1/10
f 105/1/29 104/1/28 12/1/12
f 105/1/29 12/1/12 11/1/11
f 109/1/33 108/1/32 106/1/30
f 109/1/33 106/1/30 105/1/29
# 226 elements

